<svg id="Layer_1" enable-background="new 0 0 512 512" height="512" viewBox="0 0 512 512" width="512" xmlns="http://www.w3.org/2000/svg"><g><path d="m477.03 115.521v145.485c0 4.143-3.36 7.505-7.5 7.505h-39.75c-4.14 0-7.5-3.362-7.5-7.505v-145.485c0-4.143 3.36-7.505 7.5-7.505h39.75c4.14 0 7.5 3.362 7.5 7.505z" fill="#997ab8"/><path d="m477.03 115.521v145.485c0 4.143-3.36 7.505-7.5 7.505h-39.75c-4.14 0-7.5-3.362-7.5-7.505v-28.459h16.11c11.37 0 20.58-9.216 20.58-20.593v-103.938h10.56c4.14 0 7.5 3.362 7.5 7.505z" fill="#6957a1"/><g><path d="m437.28 74.804v185.961c0 4.143-3.35 7.505-7.5 7.505h-85.08c-4.15 0-7.5-3.362-7.5-7.505v-170.941c0-3.632 2.61-6.754 6.19-7.385l85.09-15.03c2.18-.39 4.42.22 6.12 1.641 1.7 1.422 2.68 3.533 2.68 5.754z" fill="#c8d9e2"/><g fill="#e6f8fc"><path d="m407.296 133.374c0 4.153-3.36 7.505-7.5 7.505h-62.6v-15.01h62.6c4.14 0 7.5 3.363 7.5 7.505z"/><path d="m407.296 167.597c0 4.153-3.36 7.505-7.5 7.505h-62.6v-15.01h62.6c4.14 0 7.5 3.362 7.5 7.505z"/><path d="m407.296 201.819c0 4.153-3.36 7.505-7.5 7.505h-62.6v-15.01h62.6c4.14 0 7.5 3.362 7.5 7.505z"/></g></g><path d="m437.28 232.547v28.218c0 4.143-3.35 7.505-7.5 7.505h-85.08c-4.15 0-7.5-3.362-7.5-7.505v-28.218z" fill="#a1adb4"/><path d="m88.93 115.521v145.485c0 4.143-3.36 7.505-7.5 7.505h-39.75c-4.14 0-7.5-3.362-7.5-7.505v-145.485c0-4.143 3.36-7.505 7.5-7.505h39.75c4.14 0 7.5 3.362 7.5 7.505z" fill="#c8d9e2"/><path d="m34.18 232.547h54.75v28.459c0 4.143-3.36 7.505-7.5 7.505h-39.75c-4.14 0-7.5-3.362-7.5-7.505z" fill="#a1adb4"/><path d="m136.144 36.304c-4.143 0-7.5 3.36-7.5 7.505v26.285c0 4.145 3.357 7.505 7.5 7.505s7.5-3.36 7.5-7.505v-26.285c0-4.144-3.358-7.505-7.5-7.505z" fill="#ccc1e2"/><path d="m178.02 70.091v190.915c0 4.143-3.36 7.505-7.5 7.505h-89.09c-4.15 0-7.5-3.362-7.5-7.505v-190.915c0-4.143 3.35-7.505 7.5-7.505h89.09c4.14 0 7.5 3.363 7.5 7.505z" fill="#997ab8"/><path d="m73.93 232.547h104.09v28.459c0 4.143-3.36 7.505-7.5 7.505h-89.09c-4.15 0-7.5-3.362-7.5-7.505z" fill="#6957a1"/><path d="m321.32 36.304c-4.143 0-7.5 3.36-7.5 7.505v26.285c0 4.145 3.357 7.505 7.5 7.505s7.5-3.36 7.5-7.505v-26.285c0-4.144-3.357-7.505-7.5-7.505z" fill="#ccc1e2"/><path d="m352.19 70.091v190.915c0 4.143-3.36 7.505-7.5 7.505h-89.09c-4.14 0-7.5-3.362-7.5-7.505v-190.915c0-4.143 3.36-7.505 7.5-7.505h89.09c4.14 0 7.5 3.363 7.5 7.505z" fill="#f7775b"/><path d="m352.19 232.547v28.459c0 4.143-3.36 7.505-7.5 7.505h-89.09c-4.14 0-7.5-3.362-7.5-7.505v-28.459z" fill="#f25853"/><g><g fill="#ffe26f"><path d="m321.32 93.844c-4.143 0-7.5 3.36-7.5 7.505v12.6c0 4.145 3.357 7.505 7.5 7.505s7.5-3.36 7.5-7.505v-12.6c0-4.145-3.357-7.505-7.5-7.505z"/><path d="m291.32 93.844c-4.143 0-7.5 3.36-7.5 7.505v12.6c0 4.145 3.357 7.505 7.5 7.505s7.5-3.36 7.5-7.505v-12.6c0-4.145-3.357-7.505-7.5-7.505z"/><path d="m321.32 141.871c-4.143 0-7.5 3.36-7.5 7.505v12.6c0 4.145 3.357 7.505 7.5 7.505s7.5-3.36 7.5-7.505v-12.6c0-4.144-3.357-7.505-7.5-7.505z"/><path d="m291.32 141.871c-4.143 0-7.5 3.36-7.5 7.505v12.6c0 4.145 3.357 7.505 7.5 7.505s7.5-3.36 7.5-7.505v-12.6c0-4.144-3.357-7.505-7.5-7.505z"/><path d="m328.82 201.434v59.572c0 4.143-3.36 7.505-7.5 7.505s-7.5-3.362-7.5-7.505v-59.572c0-4.143 3.36-7.505 7.5-7.505s7.5 3.362 7.5 7.505z"/><path d="m298.82 201.434v59.572c0 4.143-3.36 7.505-7.5 7.505s-7.5-3.362-7.5-7.505v-59.572c0-4.143 3.36-7.505 7.5-7.505s7.5 3.362 7.5 7.505z"/></g></g><path d="m263.1 7.511v253.495c0 4.143-3.35 7.505-7.5 7.505h-85.08c-4.15 0-7.5-3.362-7.5-7.505v-238.476c0-3.632 2.61-6.754 6.19-7.385l85.09-15.03c2.18-.39 4.42.22 6.12 1.641 1.7 1.422 2.68 3.533 2.68 5.755z" fill="#c8d9e2"/><path d="m163.02 232.547h100.08v28.459c0 4.143-3.35 7.505-7.5 7.505h-85.08c-4.15 0-7.5-3.362-7.5-7.505z" fill="#a1adb4"/><g><g fill="#ffe26f"><path d="m136.144 93.844c-4.143 0-7.5 3.36-7.5 7.505v12.6c0 4.145 3.357 7.505 7.5 7.505s7.5-3.36 7.5-7.505v-12.6c0-4.145-3.358-7.505-7.5-7.505z"/><path d="m106.144 93.844c-4.143 0-7.5 3.36-7.5 7.505v12.6c0 4.145 3.357 7.505 7.5 7.505s7.5-3.36 7.5-7.505v-12.6c0-4.145-3.358-7.505-7.5-7.505z"/><path d="m136.144 141.871c-4.143 0-7.5 3.36-7.5 7.505v12.6c0 4.145 3.357 7.505 7.5 7.505s7.5-3.36 7.5-7.505v-12.6c0-4.144-3.358-7.505-7.5-7.505z"/><path d="m106.144 141.871c-4.143 0-7.5 3.36-7.5 7.505v12.6c0 4.145 3.357 7.505 7.5 7.505s7.5-3.36 7.5-7.505v-12.6c0-4.144-3.358-7.505-7.5-7.505z"/><path d="m143.64 201.434v59.572c0 4.143-3.35 7.505-7.5 7.505-4.14 0-7.5-3.362-7.5-7.505v-59.572c0-4.143 3.36-7.505 7.5-7.505 4.15 0 7.5 3.362 7.5 7.505z"/><path d="m113.64 201.434v59.572c0 4.143-3.35 7.505-7.5 7.505-4.14 0-7.5-3.362-7.5-7.505v-59.572c0-4.143 3.36-7.505 7.5-7.505 4.15 0 7.5 3.362 7.5 7.505z"/></g></g><g fill="#e6f8fc"><path d="m233.12 202.971c0 4.153-3.36 7.505-7.5 7.505h-62.6v-15.01h62.6c4.14 0 7.5 3.362 7.5 7.505z"/><path d="m233.12 66.081c0 4.153-3.36 7.505-7.5 7.505h-62.6v-15.01h62.6c4.14 0 7.5 3.363 7.5 7.505z"/><path d="m233.12 100.304c0 4.153-3.36 7.505-7.5 7.505h-62.6v-15.01h62.6c4.14 0 7.5 3.362 7.5 7.505z"/><path d="m233.12 134.526c0 4.153-3.36 7.505-7.5 7.505h-62.6v-15.01h62.6c4.14 0 7.5 3.363 7.5 7.505z"/><path d="m233.12 168.749c0 4.153-3.36 7.505-7.5 7.505h-62.6v-15.01h62.6c4.14 0 7.5 3.362 7.5 7.505z"/></g><g fill="#ffc54b"><path d="m98.64 232.547h15v28.459c0 4.143-3.35 7.505-7.5 7.505-4.14 0-7.5-3.362-7.5-7.505z"/><path d="m128.64 232.547h15v28.459c0 4.143-3.35 7.505-7.5 7.505-4.14 0-7.5-3.362-7.5-7.505z"/><path d="m283.82 232.547h15v28.459c0 4.143-3.36 7.505-7.5 7.505s-7.5-3.362-7.5-7.505z"/><path d="m328.82 232.547v28.459c0 4.143-3.36 7.505-7.5 7.505s-7.5-3.362-7.5-7.505v-28.459z"/></g><g><g><path d="m482.282 261.006c0 74.639-36.04 140.862-91.66 182.189l-79.73 27.698-15.55-6.524-242.37-101.626c-9.4-18.692-16.28-38.855-20.22-60.069l15.35-41.667h434.18z" fill="#7ac2ed"/><path d="m482.282 261.006c0 74.639-36.04 140.862-91.66 182.189l-79.73 27.698-15.55-6.524c86.82-26.777 149.93-107.71 149.93-203.363z" fill="#68a6dc"/><path d="m85.762 261.006c-7.98 18.942-22.51 35.433-53.01 41.667-2.51-13.509-3.82-27.438-3.82-41.667z" fill="#d1e16f"/><g fill="#d0edf5"><path d="m40.358 496.99h-32.857c-4.143 0-7.501 3.36-7.501 7.505s3.359 7.505 7.501 7.505h32.857c4.143 0 7.501-3.36 7.501-7.505s-3.358-7.505-7.501-7.505z"/><path d="m143.377 496.99h-67.863c-4.143 0-7.501 3.36-7.501 7.505s3.358 7.505 7.501 7.505h67.863c4.143 0 7.501-3.36 7.501-7.505s-3.358-7.505-7.501-7.505z"/><path d="m27.505 479.978h62.862c4.143 0 7.501-3.36 7.501-7.505s-3.359-7.505-7.501-7.505h-62.862c-4.143 0-7.501 3.36-7.501 7.505s3.358 7.505 7.501 7.505z"/><path d="m414.954 496.99h-62.862c-4.143 0-7.501 3.36-7.501 7.505s3.359 7.505 7.501 7.505h62.862c4.143 0 7.501-3.36 7.501-7.505s-3.359-7.505-7.501-7.505z"/><path d="m504.403 464.967h-92.868c-4.143 0-7.501 3.36-7.501 7.505s3.359 7.505 7.501 7.505h92.868c4.143 0 7.501-3.36 7.501-7.505s-3.358-7.505-7.501-7.505z"/></g><path d="m296.162 321.796c-7.14 16.341-58.72 12.608-71.33 0-9.76-9.766-14.28-43.058-8.19-60.79h41.43c22.65 16.371 44.62 45.84 38.09 60.79z" fill="#d1e16f"/><path d="m390.617 443.192c-37.707 28.019-84.426 44.601-135.015 44.601-55.17 0-105.73-19.714-145.027-52.496-23.844-19.874-43.528-44.561-57.601-72.55 89.307 0 34.106-60.072 75.514-60.072 55.33 0 48.189 89.872 78.415 105.483 29.856 15.431 52.16-16.892 94.608-16.892 32.246 0 32.596 28.119 54.59 42.98 7.891 5.324 18.573 8.946 34.516 8.946z" fill="#d1e16f"/><path d="m356.101 434.246c7.891 5.324 18.573 8.946 34.516 8.946-37.707 28.019-84.426 44.601-135.015 44.601-55.17 0-105.73-19.714-145.027-52.496 34.536 24.257 76.614 38.487 122.023 38.487 46.049 0 88.687-14.651 123.503-39.538z" fill="#9ccc4b"/><g><path d="m511.905 370.266c0 10.595-8.594 19.193-19.183 19.193h-101.949c-14.443 0-26.148-11.719-26.148-26.169 0-14.442 11.706-26.162 26.148-26.162 6.017 0 11.56 2.035 15.98 5.454 3.334-18.619 19.604-32.756 39.169-32.756 8.907 0 17.142 2.93 23.778 7.879 9.718 7.259 16.018 18.864 16.018 31.937 0 .933-.031 1.866-.092 2.784 2.194-.872 4.587-1.354 7.095-1.354 10.59.001 19.184 8.591 19.184 19.194z" fill="#e6f8fc"/><path d="m511.905 370.266c0 10.595-8.594 19.193-19.183 19.193h-101.949c-14.443 0-26.148-11.719-26.148-26.169 0 7.183 8.877 13.655 16.048 13.655h56.724c21.156-.207 38.236-17.434 38.236-38.646 0-7.573-2.171-14.634-5.933-20.593 9.718 7.259 16.018 18.864 16.018 31.937 0 .933-.031 1.866-.092 2.784 2.194-.872 4.587-1.354 7.095-1.354 10.59 0 19.184 8.59 19.184 19.193z" fill="#d0edf5"/></g></g><path d="m504.5 253.259h-497c-4.142 0-7.5 3.36-7.5 7.505s3.358 7.505 7.5 7.505h497c4.142 0 7.5-3.36 7.5-7.505s-3.358-7.505-7.5-7.505z" fill="#3a4b56"/></g></g></svg>