<svg height="512" viewBox="0 0 64 64" width="512" xmlns="http://www.w3.org/2000/svg"><g id="clean_&#xB7;_hygiene_&#xB7;_gel_&#xB7;_wash_&#xB7;_handwash" data-name="clean &#xB7;  hygiene &#xB7; gel  &#xB7; wash  &#xB7; handwash"><rect fill="#9bc9ff" height="30" rx="2" width="22" x="39" y="31"/><path d="m59 31h-3a2.006 2.006 0 0 1 2 2v26a2.006 2.006 0 0 1 -2 2h3a2.006 2.006 0 0 0 2-2v-26a2.006 2.006 0 0 0 -2-2z" fill="#57a4ff"/><path d="m39 37h22v18h-22z" fill="#2488ff"/><path d="m58 37h3v18h-3z" fill="#006df0"/><path d="m51.41 43.89a3.005 3.005 0 0 0 -3.68-2.12l-8.73 2.34-3.23.86a3.017 3.017 0 0 0 -2.21-2.61l-12.56-3.36-.41-.1a10.042 10.042 0 0 0 -6.9.75l-2.27 1.14a1.974 1.974 0 0 1 -.89.21h-1.53v10h1.39a1.965 1.965 0 0 1 1.11.34l1.49.99a3.993 3.993 0 0 0 2.22.67h13.79l10-2.68 10.28-2.76a3 3 0 0 0 2.23-2.9 2.908 2.908 0 0 0 -.1-.77z" fill="#ffbcab"/><path d="m51.28 8.44-10.28-2.76-10-2.68h-13.79a3.993 3.993 0 0 0 -2.22.67l-1.49.99a1.965 1.965 0 0 1 -1.11.34h-1.39v10h1.53a1.974 1.974 0 0 1 .89.21l2.27 1.14a10.042 10.042 0 0 0 6.9.75l.41-.1 12.56-3.36a3.017 3.017 0 0 0 2.21-2.61l3.23.86 8.73 2.34a3.005 3.005 0 0 0 3.68-2.12 2.908 2.908 0 0 0 .1-.77 3 3 0 0 0 -2.23-2.9z" fill="#ffbcab"/><path d="m57 27h-3-8-3v4h14z" fill="#ffcd00"/><path d="m55 27h2v4h-2z" fill="#ebbf00"/><path d="m54 19h-1-6-1v4 4h8z" fill="#57a4ff"/><path d="m53 19h-1v8h2v-8z" fill="#2488ff"/><path d="m36 19-4 3 2 3 3-2h9v-4z" fill="#ffcd00"/><path d="m53 17a2 2 0 0 0 -2-2h-2a2 2 0 0 0 -2 2v2h6z" fill="#005ece"/><path d="m51 15h-1a2 2 0 0 1 2 2v2h1v-2a2 2 0 0 0 -2-2z" fill="#004fac"/><path d="m9 39h-6v14h6v-2-10z" fill="#006df0"/><path d="m11 15v-10-2h-6v14h6z" fill="#006df0"/><path d="m29 36a3 3 0 0 0 3-3c0-1.657-3-5-3-5s-3 3.343-3 5a3 3 0 0 0 3 3z" fill="#2488ff"/><g fill="#ff9478"><path d="m35.77 44.97a2.991 2.991 0 0 0 -.169-.712 3 3 0 0 1 -3.6 1.9l-6.271-1.819a.96.96 0 0 0 -1.185.64v.009a.959.959 0 0 0 .651 1.2l6.804 1.972a3.005 3.005 0 0 0 3.77-3.19z"/><path d="m37.77 11.03a2.991 2.991 0 0 1 -.169.712 3 3 0 0 0 -3.601-1.902l-6.271 1.819a.96.96 0 0 1 -1.185-.64v-.009a.959.959 0 0 1 .651-1.2l6.805-1.97a3.005 3.005 0 0 1 3.77 3.19z"/></g></g></svg>