<svg id="Capa_1" enable-background="new 0 0 497.315 497.315" height="512" viewBox="0 0 497.315 497.315" width="512" xmlns="http://www.w3.org/2000/svg"><g><g><path d="m77.593 20h30.213v74.831h-30.213z" fill="#e5e1e5"/></g><path d="m128.953 144.005h-72.506v-49.943c0-8.964 7.267-16.231 16.231-16.231h40.043c8.964 0 16.231 7.267 16.231 16.231v49.943z" fill="#efedef"/><path d="m295.916 164.87c0 21.974-17.814 39.788-39.788 39.788s-39.788-17.814-39.788-39.788c0-16.923 23.597-50.518 34.447-65.07 2.664-3.573 8.019-3.573 10.683 0 10.849 14.551 34.446 48.147 34.446 65.07z" fill="#99e6fc"/><path d="m183.548 467.504c0 16.464-13.347 29.811-29.811 29.811h-122.074c-16.464 0-29.811-13.347-29.811-29.811v-261.918c0-15.086 5.868-29.58 16.363-40.418l32.806-33.877c1.416-1.462 3.364-2.287 5.399-2.287h72.56c2.035 0 3.983.825 5.399 2.287l32.806 33.877c10.495 10.837 16.363 25.332 16.363 40.418z" fill="#c8effe"/><path d="m61.675 470.115v-261.918c0-15.086 5.868-29.58 16.363-40.418l19.972-20.624c9.619-9.933 22.855-15.54 36.682-15.54l-.313-.324c-1.416-1.462-3.364-2.287-5.399-2.287h-72.56c-2.035 0-3.983.825-5.399 2.287l-32.806 33.877c-10.495 10.838-16.363 25.332-16.363 40.418v261.918c0 16.464 13.347 29.811 29.811 29.811h47.626c-10.38-4.663-17.614-15.083-17.614-27.2z" fill="#99e6fc"/><path d="m211.779 253.897c-8.31-8.31-21.79-8.31-30.11 0-4.15 4.16-6.23 9.61-6.23 15.06 0 5.44 2.08 10.89 6.23 15.05l70.402 70.581 35.439-24.782z" fill="#ffdfcf"/><path d="m196.352 274.568c-4.15-4.16-6.23-9.61-6.23-15.05 0-4.04 1.164-8.105 3.446-11.619-4.347.652-8.55 2.653-11.899 5.998-4.15 4.16-6.23 9.61-6.23 15.06 0 5.44 2.08 10.89 6.23 15.05l70.402 70.581 14.196-9.927z" fill="#ffcebf"/><g><path d="m164.167 266.497c-8.056-8.056-21.117-8.056-29.173 0-8.056 8.056-8.056 21.117 0 29.173l72.654 72.654 44.626 41.533 22.379-34.03z" fill="#ffdfcf"/><path d="m225.753 359.125-72.654-72.654c-7.06-7.06-7.915-17.985-2.601-25.995-5.576-.243-11.246 1.764-15.503 6.022-8.056 8.056-8.056 21.117 0 29.173l72.654 72.654 44.626 41.533 10.626-16.159z" fill="#ffcebf"/><g id="XMLID_218_"><g><path d="m244.599 368.327c-7.44 0-14.19-3.02-19.07-7.9s-7.9-11.63-7.9-19.07c0-6.02 1.98-11.59 5.32-16.08 4.91-6.61 12.78-10.89 21.65-10.89h27.67 38.82c3.11 0 5.94-1.74 7.4-4.49 9.53-17.99 28.46-30.25 50.24-30.25 26.59 0 48.91 18.26 55.12 42.92l68.733 68.733c3.19 3.189 3.8 8.14 1.48 12.009l-49.886 83.204c-3.29 5.487-10.861 6.421-15.386 1.897l-51.833-51.833c-1.735-1.735-4.088-2.71-6.542-2.71h-146.406c-10.47 0-20.51-4.18-27.88-11.61l-107.97-108.81c-4.46-4.46-6.69-10.31-6.69-16.15 0-5.85 2.23-11.7 6.69-16.16 8.92-8.92 23.39-8.92 32.31 0l87.18 87.19z" fill="#ffeee6"/></g><g><path d="m444.23 463.699-51.833-51.833c-1.735-1.735-4.088-2.71-6.542-2.71h-146.407c-10.47 0-20.51-4.18-27.88-11.61l-107.97-108.81c-3.685-3.685-5.824-8.345-6.464-13.138-3.279 1.083-6.366 2.93-8.974 5.538-4.46 4.46-6.69 10.31-6.69 16.16 0 5.84 2.23 11.69 6.69 16.15l107.97 108.81c7.37 7.43 17.41 11.61 27.88 11.61h146.408c2.454 0 4.807.975 6.542 2.71l51.833 51.833c4.524 4.524 12.095 3.591 15.385-1.897l13.342-22.252c-3.767 3.181-9.561 3.168-13.29-.561z" fill="#ffdfcf"/></g><g><path d="m321.669 360.827h-77.07c-4.142 0-7.5 3.358-7.5 7.5s3.358 7.5 7.5 7.5h77.07c4.143 0 7.5-3.358 7.5-7.5s-3.358-7.5-7.5-7.5z" fill="#ffdfcf"/></g></g><g><g><g><path d="m224.879 72.566h-21.138c-4.38 0-7.931-3.551-7.931-7.931v-24.323c0-1.829-1.483-3.312-3.312-3.312h-162.955c-4.83 0-8.745-3.915-8.745-8.745v-19.51c0-4.83 3.915-8.745 8.745-8.745h162.956c22.263 0 40.312 18.048 40.312 40.312v24.323c-.001 4.38-3.552 7.931-7.932 7.931z" fill="#efedef"/></g></g></g><path d="m321.851 217.926c0 16.067-13.025 29.092-29.092 29.092s-29.092-13.025-29.092-29.092c0-13.024 19.117-39.556 26.357-49.138 1.373-1.818 4.096-1.818 5.47 0 7.24 9.582 26.357 36.114 26.357 49.138z" fill="#c8effe"/></g></g></svg>