<svg xmlns="http://www.w3.org/2000/svg" xmlns:xlink="http://www.w3.org/1999/xlink" id="Layer_1" x="0" y="0" version="1.1" viewBox="0 0 512 512" xml:space="preserve" style="enable-background:new 0 0 512 512"><path style="fill:#ff705b" d="M211.883,152.199l6.499-24.785c0.687-2.622-0.765-5.331-3.329-6.209l-5.01-1.716	c-1.09-0.373-2.024-1.099-2.654-2.063l-17.191-26.281c-1.954-2.988-0.368-7.011,3.1-7.86l0,0c3.339-0.818,4.968-4.602,3.266-7.589	l-2.301-4.039c-0.846-1.485-0.904-3.292-0.156-4.829l17.108-35.121c1.174-2.41,0.313-5.318-1.983-6.7l-11.116-6.694	c-0.886-0.533-1.911-0.789-2.943-0.734l-34.512,1.826c-0.806,0.042-1.612-0.104-2.352-0.429L116.021,0.436	c-1.534-0.672-3.299-0.561-4.737,0.3L95.962,9.908c-3.012,1.803-3.393,6.018-0.754,8.332l8.998,7.887	c1.087,0.954,1.727,2.318,1.762,3.763l0.718,28.926c0.031,1.252,0.515,2.45,1.362,3.372l22.072,24.035	c1.507,1.641,1.795,4.063,0.714,6.011l-18.581,33.496c-1.635,2.949,0.399,6.654-2.062,9.359l-24.87,27.335l76.288,11.434	l74.226-11.434L211.883,152.199z"/><path style="fill:#42a555" d="M185.944,324.485l-86.786,11.434l22.16,59.893l39.799,107.571	c2.546,6.882,10.221,10.363,17.077,7.744c2.925-1.117,5.384-3.278,6.883-6.025c0.957-1.754,1.714-3.564,2.973-5.141	c1.829-2.291,3.718-4.539,5.576-6.808l12.49-14.979c1.469-1.763,2.454-3.879,2.856-6.138l6.574-36.968	c0.384-2.158,0.224-4.378-0.465-6.458l-2.573-7.764c-0.892-2.692-0.893-5.599-0.002-8.291l6.814-20.599	c0.975-2.948,2.958-5.456,5.6-7.086l4.239-2.614c1.634-1.007,3.469-1.647,5.375-1.872l1.468-0.174	c3.633-0.429,6.925-2.347,9.089-5.296c1.984-2.703,3.832-5.588,5.985-8.157c3.758-4.486,9.442-4.745,13.424-8.729l10.01-10.014	c1.22-1.221,2.19-2.67,2.852-4.264l3.254-7.834L185.944,324.485z"/><path style="fill:#427451" d="M121.316,395.813l39.799,107.571c2.546,6.882,10.221,10.363,17.077,7.744	c2.925-1.117,5.384-3.278,6.883-6.025c0.957-1.754,1.714-3.564,2.973-5.141c1.829-2.291,3.718-4.539,5.576-6.808l12.49-14.979	c1.469-1.763,2.454-3.879,2.856-6.138l6.574-36.968c0.384-2.158,0.224-4.378-0.465-6.458l-2.573-7.764	c-0.892-2.692-0.893-5.599-0.002-8.291l6.814-20.599c0.975-2.948,2.958-5.456,5.601-7.086l4.239-2.614	c1.634-1.007,3.469-1.647,5.375-1.872l1.468-0.174c3.633-0.429,6.925-2.347,9.089-5.296c1.984-2.703,3.832-5.588,5.985-8.157	c3.758-4.486,9.442-4.745,13.424-8.729l10.01-10.014c1.22-1.221,2.19-2.67,2.852-4.264l3.254-7.834h-60.367	C192.939,363.237,159.119,384.042,121.316,395.813z"/><path style="fill:#d1d1d1" d="M476.494,162.424l-7.908-11.647c-0.859-1.265-2.302-2.006-3.83-1.966l-27.52,0.72	c-1.458,0.038-2.805,0.782-3.614,1.994l-2.472,3.702c-0.344,0.516-0.791,0.954-1.313,1.288l-9.232,5.908l-23.15,14.815	c-1.165,0.745-1.921,1.986-2.049,3.363l-0.87,9.319c-0.215,2.307-2.152,4.071-4.468,4.071h-18.179c-1.033,0-2.034-0.357-2.835-1.009	l-22.212-18.096c-2.273-1.851-5.682-1.062-6.91,1.599l-9.884,21.416c-1.018,2.205-3.604,3.2-5.837,2.247l-34.12-14.566	c-4.901,58.534-30.661,111.138-69.843,150.334h60.366l1.427-3.436c0.391-0.941,1.09-1.721,1.983-2.211l29.741-16.344	c1.262-0.694,2.115-1.952,2.293-3.382l1.421-11.483c0.147-1.196,0.771-2.281,1.728-3.014l14.236-10.889	c1.025-0.784,2.338-1.089,3.603-0.837l10.002,1.992c3.27,0.651,6.083-2.363,5.207-5.581l-13.619-50.025	c-0.593-2.179,0.525-4.461,2.612-5.325l23.214-9.623c1.37-0.568,2.933-0.422,4.173,0.389l13.199,8.625	c0.591,0.386,1.265,0.628,1.966,0.704l14.753,1.619c3.359,0.368,5.121,4.177,3.228,6.976l-8.943,13.223	c-2.072,3.064,0.244,7.178,3.938,6.998l0,0c1.473-0.072,2.888,0.583,3.785,1.755l10.585,13.83c2.397,3.132,7.379,1.871,7.997-2.024	l3.102-19.535c0.398-2.503,2.788-4.182,5.277-3.705l6.798,1.302c2.488,0.477,4.878-1.199,5.277-3.702l4.092-25.693	c0.549-3.444,4.479-5.659,5.621-8.902c1.198-3.402-0.38-9.262,4-10.784l25.214-8.761c1.485-0.516,2.592-1.771,2.918-3.309	l2.038-9.614c0.253-1.195,0.009-2.441-0.678-3.452L476.494,162.424z"/><path style="fill:#42a555" d="M220.246,335.919H99.158l22.16,59.893C159.119,384.042,192.939,363.237,220.246,335.919z"/><path style="fill:#e6e6e6" d="M85.321,162.424l-9.795,10.764c-0.962,1.057-2.452,1.454-3.812,1.019l-15.667-5.02	c-1.894-0.607-3.924,0.415-4.567,2.297l-6.841,20.06c-0.505,1.483-0.008,3.124,1.236,4.075l3.396,2.598	c0.449,0.344,0.813,0.788,1.061,1.295l12.585,25.756c0.234,0.48,0.361,1.006,0.37,1.541l0.164,9.796	c0.026,1.562-0.946,2.968-2.417,3.495l-30.188,10.821c-3.036,1.089-3.27,5.292-0.374,6.711l11.606,5.686	c2.685,1.315,2.735,5.124,0.086,6.51l-3.936,2.059c-1.926,1.007-2.549,3.463-1.338,5.267l10.265,15.288	c0.356,0.529,0.843,0.956,1.414,1.238l17.646,8.705c1.564,0.772,3.457,0.328,4.514-1.059l14.137-18.532	c2.151-2.819,6.651-1.223,6.547,2.32l-0.101,3.433c-0.015,0.524,0.082,1.044,0.286,1.525l6.987,16.557	c0.28,0.663,0.357,1.394,0.223,2.1l-3.108,16.348c-0.123,0.652-0.067,1.325,0.162,1.947l3.291,8.895h121.089	c39.182-39.197,64.942-91.8,69.843-150.334l-54.253-23.161H85.321V162.424z"/></svg>