<svg id="Capa_1" enable-background="new 0 0 512 512" height="512" viewBox="0 0 512 512" width="512" xmlns="http://www.w3.org/2000/svg"><g><path d="m422.508 413.144v88.554c0 5.69-4.612 10.302-10.302 10.302h-312.412c-5.69 0-10.302-4.612-10.302-10.302v-88.565c0-51.724 41.93-93.654 93.654-93.654h1.051l76.069 38.508 67.539-38.508h1.04c51.728.001 93.663 41.936 93.663 93.665z" fill="#e28086"/><path d="m355.88 323.447c18.567 17.114 30.201 41.636 30.201 68.878v119.675h26.121c5.69 0 10.302-4.612 10.302-10.302v-88.56c0-42.326-28.079-78.088-66.624-89.691z" fill="#dd636e"/><path d="m256 391.285c39.594 0 71.805-32.211 71.805-71.805h-143.61c0 39.593 32.212 71.805 71.805 71.805z" fill="#e4f6ff"/><path d="m217.496 277.854v41.626c0 21.265 17.239 38.504 38.504 38.504 21.265 0 38.504-17.239 38.504-38.504v-41.626z" fill="#ffddce"/><path d="m217.496 304.61c12.06 4.233 25.016 6.544 38.504 6.544s26.444-2.311 38.504-6.544v-26.757h-77.008z" fill="#ffcbbe"/><path d="m172.748 107.416v97.592c0 45.979 37.273 83.252 83.252 83.252s83.252-37.273 83.252-83.252v-97.592z" fill="#ffddce"/><path d="m316.358 107.416v108.715c0 28.392-14.223 53.451-35.922 68.477 34.053-10.441 58.816-42.126 58.816-79.6v-97.592z" fill="#ffcbbe"/><path d="m372.553 116.553v58.277l-33.301 16.65-43.082-67.763c-1.991-3.132-6.275-3.815-9.142-1.458l-19.507 16.04c-7.449 6.125-16.794 9.474-26.438 9.474h-30.99c-1.897 0-3.688.871-4.86 2.362l-32.485 41.345-33.301-16.65v-58.277c0-64.371 52.183-116.553 116.553-116.553 64.37 0 116.553 52.182 116.553 116.553z" fill="#30579d"/><path d="m302.289 9.562c22.743 21.27 36.963 51.541 36.963 85.137v63.48h33.301v-41.626c0-47.922-28.925-89.081-70.264-106.991z" fill="#26457d"/><path d="m355.902 191.48h-16.65v-39.65c0-5.69 4.612-10.302 10.302-10.302h6.349c9.196 0 16.65 7.455 16.65 16.65v16.65c0 9.197-7.455 16.652-16.651 16.652z" fill="#ffddce"/><path d="m156.098 191.48h16.65v-39.65c0-5.69-4.612-10.302-10.302-10.302h-6.349c-9.196 0-16.65 7.455-16.65 16.65v16.65c0 9.197 7.455 16.652 16.651 16.652z" fill="#ffddce"/><g fill="#dd636e"><path d="m157.138 452.241c-4.267 0-7.726 3.459-7.726 7.726v52.033h15.453v-52.032c0-4.268-3.46-7.727-7.727-7.727z"/><path d="m354.862 452.241c-4.268 0-7.726 3.459-7.726 7.726v52.033h15.453v-52.032c0-4.268-3.459-7.727-7.727-7.727z"/></g><path d="m210.46 201.177-37.712-18.285v17.174l30.971 15.016c1.086.526 2.234.776 3.365.776 2.868 0 5.623-1.604 6.958-4.357 1.861-3.84.258-8.462-3.582-10.324z" fill="#e4f6ff"/><path d="m301.54 201.177 37.712-18.285v17.174l-30.971 15.016c-1.086.526-2.234.776-3.365.776-2.868 0-5.623-1.604-6.958-4.357-1.861-3.84-.258-8.462 3.582-10.324z" fill="#e4f6ff"/><path d="m304.91 200.403h-97.82c-4.267 0-7.726 3.459-7.726 7.726v57.874c14.859 13.803 34.756 22.257 56.637 22.257s41.778-8.453 56.637-22.257v-57.873c-.001-4.268-3.46-7.727-7.728-7.727z" fill="#95d6a4"/></g></svg>